<?xml version="1.0" standalone="no"?>
<!DOCTYPE svg PUBLIC "-//W3C//DTD SVG 20010904//EN"
 "http://www.w3.org/TR/2001/REC-SVG-20010904/DTD/svg10.dtd">
<svg version="1.0" xmlns="http://www.w3.org/2000/svg"
 width="920.000000pt" height="920.000000pt" viewBox="0 0 920.000000 920.000000"
 preserveAspectRatio="xMidYMid meet">
<metadata>
Created by potrace 1.11, written by Peter Selinger 2001-2013
</metadata>
<g transform="translate(0.000000,920.000000) scale(0.100000,-0.100000)"
fill="#000000" stroke="none">
<path d="M4600 8391 l0 -378 133 -7 c196 -10 290 -32 426 -101 158 -79 193
-85 514 -85 l267 0 0 380 0 380 -257 0 c-323 1 -378 9 -507 79 -141 76 -298
111 -498 111 l-78 0 0 -379z"/>
<path d="M3755 6770 l-850 -850 -1147 0 -1148 0 0 -2380 0 -2380 1330 0 1330
0 0 2296 0 2297 666 664 667 665 665 -665 665 -665 5 -2296 5 -2296 1328 0
1329 0 0 2380 0 2380 -1147 0 -1148 0 -850 850 -850 850 -850 -850z"/>
<path d="M4580 5152 c-81 -11 -140 -58 -159 -129 -14 -51 -14 -447 0 -498 17
-59 73 -110 137 -124 65 -14 390 -15 461 -1 100 19 151 82 151 187 0 71 -29
128 -80 157 -29 17 -58 22 -165 26 l-130 5 -5 130 c-5 143 -16 177 -69 214
-31 23 -100 39 -141 33z"/>
<path d="M4446 3045 c-197 -54 -360 -226 -401 -422 -12 -55 -15 -199 -15 -765
l0 -698 575 0 576 0 -3 718 -3 717 -28 78 c-67 191 -208 324 -393 372 -72 18
-240 19 -308 0z"/>
</g>
</svg>
